<svg width="80" height="80" viewBox="0 0 80 80" fill="none" xmlns="http://www.w3.org/2000/svg">
<path d="M25.4932 54.3366L36.0998 43.73M49.4565 39.0133L46.2815 48.5383C46.2308 48.691 46.1441 48.8292 46.0286 48.9412C45.9131 49.0532 45.7723 49.1357 45.6182 49.1816L26.1548 54.9666C25.9795 55.0187 25.7932 55.0217 25.6163 54.9753C25.4393 54.9288 25.2785 54.8348 25.1514 54.7033C25.0242 54.5718 24.9355 54.408 24.895 54.2296C24.8544 54.0512 24.8636 53.8652 24.9215 53.6916L31.2415 34.735C31.2868 34.5989 31.3608 34.4741 31.4586 34.3691C31.5564 34.2642 31.6756 34.1815 31.8082 34.1266L40.7865 30.43C40.969 30.3546 41.1698 30.3349 41.3635 30.3735C41.5571 30.4121 41.7351 30.5071 41.8748 30.6466L49.2148 37.9883C49.3465 38.1198 49.4388 38.2853 49.4815 38.4664C49.5242 38.6475 49.5155 38.8369 49.4565 39.0133Z" stroke="#2C3A47" stroke-width="2.5" stroke-linecap="round" stroke-linejoin="round"/>
<path d="M49.6532 38.4266L54.3666 33.7117C54.9915 33.0866 55.3425 32.2389 55.3425 31.355C55.3425 30.4711 54.9915 29.6234 54.3666 28.9983L50.8332 25.4617C50.5237 25.152 50.1562 24.9063 49.7517 24.7387C49.3471 24.5711 48.9136 24.4849 48.4757 24.4849C48.0379 24.4849 47.6043 24.5711 47.1998 24.7387C46.7953 24.9063 46.4278 25.152 46.1182 25.4617L41.4049 30.1767M39.6349 40.1933C39.4027 39.9612 39.127 39.7771 38.8236 39.6515C38.5203 39.526 38.1951 39.4614 37.8668 39.4614C37.5385 39.4615 37.2134 39.5263 36.9101 39.652C36.6068 39.7777 36.3312 39.9619 36.0991 40.1942C35.867 40.4264 35.6829 40.702 35.5573 41.0054C35.4317 41.3088 35.3671 41.6339 35.3672 41.9622C35.3673 42.2906 35.432 42.6157 35.5577 42.919C35.6834 43.2223 35.8677 43.4979 36.0999 43.73C36.5689 44.1988 37.2049 44.462 37.868 44.4619C38.5311 44.4617 39.167 44.1981 39.6357 43.7292C40.1045 43.2602 40.3678 42.6242 40.3676 41.9611C40.3675 41.298 40.1039 40.6621 39.6349 40.1933Z" stroke="#2C3A47" stroke-width="2.5" stroke-linecap="round" stroke-linejoin="round"/>
<circle cx="40" cy="40" r="38.5" stroke="#2C3A47" stroke-width="3"/>
</svg>
