<svg width="80" height="80" viewBox="0 0 80 80" fill="none" xmlns="http://www.w3.org/2000/svg">
<g clip-path="url(#clip0_80_320)">
<path d="M26.6667 30.0001V46.6667H35V40.0001C35 39.116 35.3512 38.2682 35.9763 37.6431C36.6014 37.0179 37.4493 36.6667 38.3333 36.6667H46.6667C47.5507 36.6667 48.3986 37.0179 49.0237 37.6431C49.6488 38.2682 50 39.116 50 40.0001V46.6667H53.3333V30.0001H26.6667ZM20 53.3334V50.0001H26.6667C25.7826 50.0001 24.9348 49.6489 24.3096 49.0238C23.6845 48.3986 23.3333 47.5508 23.3333 46.6667V30.0001C23.3333 29.116 23.6845 28.2682 24.3096 27.6431C24.9348 27.0179 25.7826 26.6667 26.6667 26.6667H53.3333C54.2174 26.6667 55.0652 27.0179 55.6904 27.6431C56.3155 28.2682 56.6667 29.116 56.6667 30.0001V46.6667C56.6667 47.5508 56.3155 48.3986 55.6904 49.0238C55.0652 49.6489 54.2174 50.0001 53.3333 50.0001H60V53.3334H50C50 54.2175 49.6488 55.0653 49.0237 55.6904C48.3986 56.3156 47.5507 56.6667 46.6667 56.6667H38.3333C37.4493 56.6667 36.6014 56.3156 35.9763 55.6904C35.3512 55.0653 35 54.2175 35 53.3334H20ZM39.1667 53.3334C38.9457 53.3334 38.7337 53.4212 38.5774 53.5775C38.4211 53.7338 38.3333 53.9457 38.3333 54.1667C38.3333 54.3878 38.4211 54.5997 38.5774 54.756C38.7337 54.9123 38.9457 55.0001 39.1667 55.0001C39.3877 55.0001 39.5996 54.9123 39.7559 54.756C39.9122 54.5997 40 54.3878 40 54.1667C40 53.9457 39.9122 53.7338 39.7559 53.5775C39.5996 53.4212 39.3877 53.3334 39.1667 53.3334ZM45.8333 53.3334C45.6123 53.3334 45.4004 53.4212 45.2441 53.5775C45.0878 53.7338 45 53.9457 45 54.1667C45 54.3878 45.0878 54.5997 45.2441 54.756C45.4004 54.9123 45.6123 55.0001 45.8333 55.0001C46.0543 55.0001 46.2663 54.9123 46.4226 54.756C46.5789 54.5997 46.6667 54.3878 46.6667 54.1667C46.6667 53.9457 46.5789 53.7338 46.4226 53.5775C46.2663 53.4212 46.0543 53.3334 45.8333 53.3334ZM41.6667 53.3334V55.0001H43.3333V53.3334H41.6667ZM38.3333 40.0001V51.6667H46.6667V40.0001H38.3333Z" fill="#2C3A47"/>
</g>
<circle cx="40" cy="40" r="38.5" stroke="#2C3A47" stroke-width="3"/>
<defs>
<clipPath id="clip0_80_320">
<rect width="40" height="40" fill="white" transform="translate(20 20)"/>
</clipPath>
</defs>
</svg>
