<svg width="80" height="80" viewBox="0 0 80 80" fill="none" xmlns="http://www.w3.org/2000/svg">
<path d="M38 27.9999C36.474 27.9999 35.05 28.4259 33.836 29.1679C33.7105 28.4967 33.4818 27.8491 33.158 27.2479C34.6806 26.4053 36.3967 25.9746 38.1367 25.9984C39.8768 26.0222 41.5805 26.4997 43.0794 27.3836C44.5784 28.2675 45.8208 29.5273 46.6838 31.0384C47.5467 32.5496 48.0004 34.2597 48 35.9999H53.002C53.7973 36.0005 54.5599 36.3168 55.122 36.8793C55.6842 37.4419 56 38.2046 56 38.9999V50.9999C56 51.7956 55.6839 52.5586 55.1213 53.1212C54.5587 53.6838 53.7956 53.9999 53 53.9999H41C40.2044 53.9999 39.4413 53.6838 38.8787 53.1212C38.3161 52.5586 38 51.7956 38 50.9999V45.9999C36.6088 46.0017 35.2326 45.7121 33.96 45.1499C33.986 44.4699 34 43.7559 34 42.9999V42.9299C35.176 43.6099 36.542 43.9999 38 43.9999V38.9999C38 38.2043 38.3161 37.4412 38.8787 36.8786C39.4413 36.316 40.2044 35.9999 41 35.9999H46C46 33.8782 45.1571 31.8434 43.6569 30.3431C42.1566 28.8428 40.1217 27.9999 38 27.9999ZM47.8 37.9999C47.4066 39.9211 46.4577 41.6844 45.0711 43.071C43.6844 44.4576 41.9211 45.4065 40 45.7999V50.9999C40 51.2651 40.1054 51.5195 40.2929 51.707C40.4804 51.8946 40.7348 51.9999 41 51.9999H53C53.2652 51.9999 53.5196 51.8946 53.7071 51.707C53.8946 51.5195 54 51.2651 54 50.9999V38.9999C54 38.7347 53.8946 38.4803 53.7071 38.2928C53.5196 38.1053 53.2652 37.9999 53 37.9999H47.8ZM45.748 37.9999H41C40.7348 37.9999 40.4804 38.1053 40.2929 38.2928C40.1054 38.4803 40 38.7347 40 38.9999V43.7479C41.3836 43.3895 42.6462 42.6675 43.6569 41.6568C44.6676 40.6461 45.3895 39.3835 45.748 37.9999ZM29.162 24.2499C29.328 24.3951 29.4414 24.5911 29.4844 24.8074C29.5274 25.0238 29.4978 25.2482 29.4 25.4459C29.3831 25.5044 29.3743 25.565 29.374 25.6259C29.374 25.7519 29.406 25.9919 29.708 26.2919C29.854 26.4379 29.966 26.5419 30.088 26.6559C30.188 26.7479 30.294 26.8439 30.428 26.9759C30.688 27.2239 30.962 27.5159 31.208 27.8819C31.718 28.6479 32 29.6059 32 30.9999C32 32.7059 31.368 34.1599 30.382 35.0519L30.51 35.1999C31.07 35.8879 31.396 36.7799 31.6 37.6599C32 39.3999 32 41.4919 32 42.9499V42.9999C32 48.5739 31.242 51.7359 30.408 53.5439C29.988 54.4539 29.542 55.0339 29.156 55.3979C28.9991 55.5485 28.826 55.6813 28.64 55.7939C28.5548 55.8452 28.4659 55.89 28.374 55.9279C28.374 55.9279 28.148 55.9999 28 55.9999C27.852 55.9999 27.626 55.9279 27.626 55.9279C27.5331 55.8922 27.444 55.8473 27.36 55.7939C27.174 55.6813 27.0009 55.5485 26.844 55.3979C26.458 55.0319 26.012 54.4539 25.592 53.5439C24.758 51.7359 24 48.5739 24 42.9999V42.9499C24 41.4899 24 39.3999 24.4 37.6599C24.604 36.7799 24.93 35.8879 25.49 35.1999C25.53 35.1499 25.574 35.0999 25.618 35.0519C24.632 34.1599 24 32.7059 24 30.9999C24 30.3479 24.174 29.5699 24.414 28.8519C24.654 28.1319 24.99 27.3879 25.378 26.7879C25.84 26.0079 26.49 25.3539 26.994 24.9139C27.2703 24.6709 27.5587 24.442 27.858 24.2279L27.918 24.1879L27.936 24.1739L27.942 24.1699L27.946 24.1679C28.1294 24.0457 28.348 23.9874 28.5679 24.0023C28.7878 24.0171 28.9967 24.1042 29.162 24.2499ZM28 33.9999C28.774 33.9979 30 33.1399 30 30.9999C30 29.8939 29.782 29.3519 29.542 28.9919C29.3961 28.7817 29.2278 28.5879 29.04 28.4139L28.792 28.1819C28.63 28.0299 28.44 27.8539 28.292 27.7079C28.0733 27.4915 27.8855 27.2458 27.734 26.9779C27.4794 27.2456 27.2554 27.5407 27.066 27.8579C26.786 28.2879 26.514 28.8779 26.312 29.4859C26.104 30.1059 26 30.6539 26 30.9999C26 33.1439 27.23 33.9999 28 33.9999ZM27.04 36.4639C26.756 36.8099 26.52 37.3619 26.348 38.1099C26.004 39.6059 26 41.4859 26 42.9999C26 48.4259 26.742 51.2639 27.408 52.7059C27.628 53.1799 27.834 53.4959 28 53.7059C28.2363 53.3973 28.435 53.0616 28.592 52.7059C29.258 51.2639 30 48.4259 30 42.9999C30 41.4859 29.996 39.6059 29.65 38.1099C29.478 37.3619 29.242 36.8099 28.96 36.4639C28.8497 36.3144 28.7046 36.1941 28.5374 36.1132C28.3701 36.0324 28.1857 35.9935 28 35.9999H27.996C27.811 35.994 27.6273 36.0331 27.4607 36.114C27.2942 36.1948 27.1498 36.3149 27.04 36.4639Z" fill="#2C3A47"/>
<circle cx="40" cy="40" r="38.5" stroke="#2C3A47" stroke-width="3"/>
</svg>
