<svg width="80" height="80" viewBox="0 0 80 80" fill="none" xmlns="http://www.w3.org/2000/svg">
<g clip-path="url(#clip0_80_349)">
<path d="M35.8333 20.8333V23.3333C35.8333 23.9963 36.0967 24.6322 36.5656 25.101C37.0344 25.5699 37.6703 25.8333 38.3333 25.8333H41.6667C42.3297 25.8333 42.9656 25.5699 43.4344 25.101C43.9033 24.6322 44.1667 23.9963 44.1667 23.3333V20.8333M36.6667 54.1666H43.3333M27.5 21.2499C27.5 21.2499 28.3333 32.4866 28.3333 39.9999C28.3333 47.5133 27.5 58.7499 27.5 58.7499V59.1666H52.5V58.7499C52.5 58.7499 51.6667 47.5133 51.6667 39.9999C51.6667 32.4866 52.5 21.2499 52.5 21.2499V20.8333H27.5V21.2499Z" stroke="#2C3A47" stroke-width="2.66667"/>
</g>
<circle cx="40" cy="40" r="38.5" stroke="#2C3A47" stroke-width="3"/>
<defs>
<clipPath id="clip0_80_349">
<rect width="40" height="40" fill="white" transform="translate(20 20)"/>
</clipPath>
</defs>
</svg>
