<svg width="80" height="80" viewBox="0 0 80 80" fill="none" xmlns="http://www.w3.org/2000/svg">
<path d="M40.0003 43.3334V56.6667H26.667C26.667 53.1305 28.0718 49.7391 30.5722 47.2387C33.0727 44.7382 36.4641 43.3334 40.0003 43.3334ZM50.0003 55.8334L45.102 58.4084L46.037 52.9534L42.0753 49.0917L47.552 48.2968L50.0003 43.3334L52.4503 48.2951L57.9253 49.0917L53.9637 52.9551L54.897 58.4084L50.0003 55.8334ZM40.0003 41.6667C34.4753 41.6667 30.0003 37.1917 30.0003 31.6667C30.0003 26.1417 34.4753 21.6667 40.0003 21.6667C45.5253 21.6667 50.0003 26.1417 50.0003 31.6667C50.0003 37.1917 45.5253 41.6667 40.0003 41.6667Z" fill="#2C3A47"/>
<circle cx="40" cy="40" r="38.5" stroke="#2C3A47" stroke-width="3"/>
</svg>
