<svg width="80" height="80" viewBox="0 0 80 80" fill="none" xmlns="http://www.w3.org/2000/svg">
<path d="M31.667 28.3334H48.3337V31.6667H51.667V25.0001C51.667 23.1667 50.167 21.6834 48.3337 21.6834L31.667 21.6667C29.8337 21.6667 28.3337 23.1667 28.3337 25.0001V31.6667H31.667V28.3334ZM45.6837 47.6501L53.3337 40.0001L45.6837 32.3501L43.3337 34.7167L48.617 40.0001L43.3337 45.2834L45.6837 47.6501ZM36.667 45.2834L31.3837 40.0001L36.667 34.7167L34.317 32.3501L26.667 40.0001L34.317 47.6501L36.667 45.2834ZM48.3337 51.6667H31.667V48.3334H28.3337V55.0001C28.3337 56.8334 29.8337 58.3334 31.667 58.3334H48.3337C50.167 58.3334 51.667 56.8334 51.667 55.0001V48.3334H48.3337V51.6667Z" fill="#2C3A47"/>
<circle cx="40" cy="40" r="38.5" stroke="#2C3A47" stroke-width="3"/>
</svg>
