<svg width="256" height="256" viewBox="0 0 256 256" fill="none" xmlns="http://www.w3.org/2000/svg">
<path fill-rule="evenodd" clip-rule="evenodd" d="M123.152 0.00737157C154.246 0.623776 161.613 40.5284 185.384 58.0556C206.426 73.5706 243.438 73.4911 253.285 95.9593C263.123 118.408 243.976 142.223 231.697 163.733C221.116 182.269 204.844 196.278 187.8 210.673C167.539 227.783 151.049 251.953 123.152 255.4C94.3223 258.962 64.5584 246.234 43.7037 228.477C24.2341 211.899 22.5181 186.441 15.2744 163.544C8.42036 141.879 -5.90577 119.892 2.64507 98.6925C11.1418 77.6271 40.1854 70.8194 58.8351 55.5468C81.3797 37.0848 92.2647 -0.604958 123.152 0.00737157Z" fill="#CCF0E9" fill-opacity="0.3"/>
</svg>
